<?xml version="1.0" encoding="UTF-8" standalone="no"?>
<!-- Generator: Adobe Illustrator 24.3.0, SVG Export Plug-In . SVG Version: 6.00 Build 0)  -->

<svg
   version="1.1"
   id="Capa_1"
   x="0px"
   y="0px"
   viewBox="0 0 32 32"
   style="enable-background:new 0 0 32 32;"
   xml:space="preserve"
   sodipodi:docname="cut.svg"
   inkscape:version="1.2.2 (b0a8486541, 2022-12-01)"
   xmlns:inkscape="http://www.inkscape.org/namespaces/inkscape"
   xmlns:sodipodi="http://sodipodi.sourceforge.net/DTD/sodipodi-0.dtd"
   xmlns="http://www.w3.org/2000/svg"
   xmlns:svg="http://www.w3.org/2000/svg"><defs
   id="defs21"><inkscape:path-effect
   effect="powerclip"
   id="path-effect8407"
   is_visible="true"
   lpeversion="1"
   inverse="true"
   flatten="false"
   hide_clip="false"
   message="Use fill-rule evenodd on &lt;b&gt;fill and stroke&lt;/b&gt; dialog if no flatten result after convert clip to paths." />
	
	
	
	

	
	

		
		
	
	
	

	
	
<filter
   id="mask-powermask-path-effect8393_inverse"
   inkscape:label="filtermask-powermask-path-effect8393"
   style="color-interpolation-filters:sRGB"
   height="100"
   width="100"
   x="-50"
   y="-50"><feColorMatrix
     id="mask-powermask-path-effect8393_primitive1"
     values="1"
     type="saturate"
     result="fbSourceGraphic" /><feColorMatrix
     id="mask-powermask-path-effect8393_primitive2"
     values="-1 0 0 0 1 0 -1 0 0 1 0 0 -1 0 1 0 0 0 1 0 "
     in="fbSourceGraphic" /></filter><clipPath
   clipPathUnits="userSpaceOnUse"
   id="clipPath8403"><circle
     style="display:none;fill:#a6d100;stroke:none;stroke-width:1.00157;stroke-linecap:round;stroke-linejoin:round;stroke-dasharray:2.00315, 4.0063"
     id="circle8405"
     cx="6.9830503"
     cy="25.423729"
     r="2.4406779"
     d="M 9.4237282,25.423729 A 2.4406779,2.4406779 0 0 1 6.9830503,27.864407 2.4406779,2.4406779 0 0 1 4.5423725,25.423729 2.4406779,2.4406779 0 0 1 6.9830503,22.983051 2.4406779,2.4406779 0 0 1 9.4237282,25.423729 Z" /><path
     id="lpe_path-effect8407"
     style="fill:#a6d100;stroke:none;stroke-width:1.00157;stroke-linecap:round;stroke-linejoin:round;stroke-dasharray:2.00315, 4.0063"
     class="powerclip"
     d="M -2.2203393,16.220339 H 16.18644 v 18.40678 H -2.2203393 Z m 11.6440675,9.20339 a 2.4406779,2.4406779 0 0 0 -2.4406779,-2.440678 2.4406779,2.4406779 0 0 0 -2.4406778,2.440678 2.4406779,2.4406779 0 0 0 2.4406778,2.440678 2.4406779,2.4406779 0 0 0 2.4406779,-2.440678 z" /></clipPath><clipPath
   clipPathUnits="userSpaceOnUse"
   id="clipPath8403-1"><circle
     style="display:none;fill:#a6d100;stroke:none;stroke-width:1.00157;stroke-linecap:round;stroke-linejoin:round;stroke-dasharray:2.00315, 4.0063"
     id="circle8405-2"
     cx="6.9830503"
     cy="25.423729"
     r="2.4406779"
     d="M 9.4237282,25.423729 A 2.4406779,2.4406779 0 0 1 6.9830503,27.864407 2.4406779,2.4406779 0 0 1 4.5423725,25.423729 2.4406779,2.4406779 0 0 1 6.9830503,22.983051 2.4406779,2.4406779 0 0 1 9.4237282,25.423729 Z" /><path
     id="lpe_path-effect8407-7"
     style="fill:#a6d100;stroke:none;stroke-width:1.00157;stroke-linecap:round;stroke-linejoin:round;stroke-dasharray:2.00315, 4.0063"
     class="powerclip"
     d="M -2.2203393,16.220339 H 16.18644 v 18.40678 H -2.2203393 Z m 11.6440675,9.20339 a 2.4406779,2.4406779 0 0 0 -2.4406779,-2.440678 2.4406779,2.4406779 0 0 0 -2.4406778,2.440678 2.4406779,2.4406779 0 0 0 2.4406778,2.440678 2.4406779,2.4406779 0 0 0 2.4406779,-2.440678 z" /></clipPath><inkscape:path-effect
   effect="powerclip"
   id="path-effect8407-0"
   is_visible="true"
   lpeversion="1"
   inverse="true"
   flatten="false"
   hide_clip="false"
   message="Use fill-rule evenodd on &lt;b&gt;fill and stroke&lt;/b&gt; dialog if no flatten result after convert clip to paths." /><clipPath
   clipPathUnits="userSpaceOnUse"
   id="clipath_lpe_path-effect8407-0"><circle
     style="display:none;fill:#a6d100;stroke:none;stroke-width:1.00157;stroke-linecap:round;stroke-linejoin:round;stroke-dasharray:2.00315, 4.0063"
     id="circle8466"
     cx="6.9830503"
     cy="25.423729"
     r="2.4406779"
     d="M 9.4237282,25.423729 A 2.4406779,2.4406779 0 0 1 6.9830503,27.864407 2.4406779,2.4406779 0 0 1 4.5423725,25.423729 2.4406779,2.4406779 0 0 1 6.9830503,22.983051 2.4406779,2.4406779 0 0 1 9.4237282,25.423729 Z" /><path
     id="lpe_path-effect8407-0"
     style="fill:#a6d100;stroke:none;stroke-width:1.00157;stroke-linecap:round;stroke-linejoin:round;stroke-dasharray:2.00315, 4.0063"
     class="powerclip"
     d="M -2.2203393,16.220339 H 16.18644 v 18.40678 H -2.2203393 Z m 11.6440675,9.20339 a 2.4406779,2.4406779 0 0 0 -2.4406779,-2.440678 2.4406779,2.4406779 0 0 0 -2.4406778,2.440678 2.4406779,2.4406779 0 0 0 2.4406778,2.440678 2.4406779,2.4406779 0 0 0 2.4406779,-2.440678 z" /></clipPath></defs><sodipodi:namedview
   id="namedview19"
   pagecolor="#ffffff"
   bordercolor="#666666"
   borderopacity="1.0"
   inkscape:showpageshadow="2"
   inkscape:pageopacity="0.0"
   inkscape:pagecheckerboard="0"
   inkscape:deskcolor="#d1d1d1"
   showgrid="false"
   inkscape:zoom="20.85965"
   inkscape:cx="21.213203"
   inkscape:cy="13.542893"
   inkscape:window-width="1920"
   inkscape:window-height="1011"
   inkscape:window-x="0"
   inkscape:window-y="32"
   inkscape:window-maximized="1"
   inkscape:current-layer="Capa_1" />
<style
   type="text/css"
   id="style2">
	.st0{fill:#17B5C8;}
	.st1{fill:#11828F;}
	.st2{fill:none;}
	.st3{fill:#A6D100;}
	.st4{fill:#89AB00;}
	.st5{fill:#5F7993;}
	.st6{fill:#405162;}
	.st7{fill:#FFFFFF;}
	.st8{fill:#3A5368;}
</style>

<g
   id="g8606"
   transform="translate(-1.5340622,-1.9175777)"><path
     style="fill:#a6d100;stroke:none;stroke-width:1.00157;stroke-linecap:round;stroke-linejoin:round;stroke-dasharray:2.00315, 4.0063"
     id="path8333"
     clip-path="url(#clipPath8403)"
     inkscape:path-effect="#path-effect8407"
     sodipodi:type="arc"
     sodipodi:cx="6.9830503"
     sodipodi:cy="25.423729"
     sodipodi:rx="4.2033896"
     sodipodi:ry="4.2033896"
     d="m 11.18644,25.423729 a 4.2033896,4.2033896 0 0 1 -4.2033897,4.20339 4.2033896,4.2033896 0 0 1 -4.2033896,-4.20339 4.2033896,4.2033896 0 0 1 4.2033896,-4.20339 4.2033896,4.2033896 0 0 1 4.2033897,4.20339 z"
     transform="translate(1.4803067,-0.00822511)" /><path
     style="fill:#5f7993;stroke:none;stroke-width:1.00157;stroke-linecap:round;stroke-linejoin:round;stroke-dasharray:2.00315, 4.0063"
     id="path8333-9"
     clip-path="url(#clipath_lpe_path-effect8407-0)"
     inkscape:path-effect="#path-effect8407-0"
     sodipodi:type="arc"
     sodipodi:cx="6.9830503"
     sodipodi:cy="25.423729"
     sodipodi:rx="4.2033896"
     sodipodi:ry="4.2033896"
     d="m 11.18644,25.423729 a 4.2033896,4.2033896 0 0 1 -4.2033897,4.20339 4.2033896,4.2033896 0 0 1 -4.2033896,-4.20339 4.2033896,4.2033896 0 0 1 4.2033896,-4.20339 4.2033896,4.2033896 0 0 1 4.2033897,4.20339 z"
     transform="translate(1.0687094,-15.123875)" /><path
     style="fill:#5f7993;stroke:none;stroke-width:1px;stroke-linecap:butt;stroke-linejoin:miter;stroke-opacity:1"
     d="M 9.9520606,13.691095 24.867315,25.962281 c 0.540001,0.515859 0.915155,0.61531 1.355933,0.644068 h 5.627118 L 10.697824,9.7927903 Z"
     id="path8535"
     sodipodi:nodetypes="cccccc" /><path
     style="fill:#a6d100;stroke:none;stroke-width:1px;stroke-linecap:butt;stroke-linejoin:miter;stroke-opacity:1"
     d="m 10.288021,21.670795 4.169491,-3.355931 2.847458,2.237287 -5.559322,4.440678 z"
     id="path8535-3"
     sodipodi:nodetypes="ccccc" /><path
     style="fill:#a6d100;stroke:none;stroke-width:1px;stroke-linecap:butt;stroke-linejoin:miter;stroke-opacity:1"
     d="m 18.40678,15.016948 6.813559,-5.7288115 c 0.540001,-0.515859 0.915155,-0.61531 1.355933,-0.644068 H 32.20339 L 21.355933,17.322033 Z"
     id="path8535-3-6"
     sodipodi:nodetypes="cccccc" /></g></svg>
