<?xml version="1.0" encoding="UTF-8" standalone="no"?>
<!-- Generator: Adobe Illustrator 24.3.0, SVG Export Plug-In . SVG Version: 6.00 Build 0)  -->

<svg
   version="1.1"
   id="Capa_1"
   x="0px"
   y="0px"
   viewBox="0 0 32 32"
   style="enable-background:new 0 0 32 32;"
   xml:space="preserve"
   sodipodi:docname="decission.svg"
   inkscape:version="1.2.2 (b0a8486541, 2022-12-01)"
   xmlns:inkscape="http://www.inkscape.org/namespaces/inkscape"
   xmlns:sodipodi="http://sodipodi.sourceforge.net/DTD/sodipodi-0.dtd"
   xmlns="http://www.w3.org/2000/svg"
   xmlns:svg="http://www.w3.org/2000/svg"><defs
   id="defs688">
	

		
		
	</defs><sodipodi:namedview
   id="namedview686"
   pagecolor="#ffffff"
   bordercolor="#666666"
   borderopacity="1.0"
   inkscape:showpageshadow="2"
   inkscape:pageopacity="0.0"
   inkscape:pagecheckerboard="0"
   inkscape:deskcolor="#d1d1d1"
   showgrid="false"
   inkscape:zoom="20.85965"
   inkscape:cx="8.0298567"
   inkscape:cy="16.179562"
   inkscape:window-width="1920"
   inkscape:window-height="1043"
   inkscape:window-x="0"
   inkscape:window-y="1080"
   inkscape:window-maximized="1"
   inkscape:current-layer="Capa_1" />
<style
   type="text/css"
   id="style675">
	.st0{fill:#17B5C8;}
	.st1{fill:#11828F;}
	.st2{fill:none;}
	.st3{fill:#A6D100;}
	.st4{fill:#89AB00;}
	.st5{fill:#5F7993;}
	.st6{fill:#405162;}
	.st7{fill:#FFFFFF;}
	.st8{fill:#3A5368;}
</style>

<path
   class="st0"
   d="M 15.67027,0.96166966 C 8.9317406,1.0789524 1.1443742,6.2589677 1.0314125,15.79182 0.9333415,24.068056 7.7362041,30.160907 16.14474,30.169904 25.782432,29.35684 28.282132,26.238982 28.282132,16.598363 28.282132,6.9577433 22.950952,0.98006675 15.67027,0.96166966 Z M 16.208411,25.871861 c -0.713903,0 -1.308822,-0.58076 -1.308822,-1.277672 0,-0.696912 0.594919,-1.277673 1.308822,-1.277673 0.713903,0 1.308822,0.580761 1.308822,1.277673 0,0.696912 -0.594919,1.277672 -1.308822,1.277672 z m 1.784758,-8.362947 -0.475936,0.116153 v 0.464608 1.045368 c 0,0.696912 -0.594919,1.277672 -1.308822,1.277672 -0.713903,0 -1.308822,-0.58076 -1.308822,-1.277672 v -1.974585 c 0,-0.929216 0.713903,-1.74228 1.784757,-1.974584 0.713903,-0.116152 1.427807,-0.580761 1.903742,-1.161521 0.475935,-0.58076 0.594919,-1.393824 0.475935,-2.206888 -0.237967,-1.045369 -1.070854,-1.8584331 -2.141709,-2.0907372 -0.237968,0 -0.356952,-0.116152 -0.594919,-0.116152 -0.594919,0 -1.308823,0.2323041 -1.784758,0.5807602 -0.713903,0.58076 -1.070855,1.277672 -1.070855,2.206889 0,0.464608 -0.237967,0.929216 -0.713903,1.16152 -0.237967,0.116152 -0.475935,0.116152 -0.713903,0.116152 -0.237968,0 -0.475935,0.116152 -0.594919,0 -0.356952,-0.232304 -0.713903,-0.696912 -0.713903,-1.16152 0,-1.626129 0.713903,-3.1361053 2.022725,-4.1814737 0.951871,-0.8130642 2.14171,-1.1615204 3.450532,-1.1615204 0.356951,0 0.713903,0 1.189838,0.1161521 2.379677,0.4646081 4.164435,2.5553449 4.283419,4.878386 0.118984,2.32304 -1.308822,4.529929 -3.688499,5.342993 z"
   id="path679"
   sodipodi:nodetypes="cscscssssscccsssscsccscssscscscsc"
   style="stroke-width:1.17559" /><path
   class="st1"
   d="m 15.673106,0.95427971 c -0.594919,-4.1175e-4 0.550671,0.005575 -0.04425,0.12172569 7.700408,2.2934416 12.407838,5.3494971 12.407838,14.9901156 0,9.64062 -5.89319,12.084664 -11.444689,13.936497 0.59492,0 -0.436305,0.01544 0.158614,0.01544 10.470579,0 13.964492,-8.918106 13.992064,-14.327921 C 30.795644,5.299079 21.801813,0.95852112 15.673106,0.95427971 Z"
   id="path677"
   sodipodi:nodetypes="scscsss"
   style="stroke-width:1.17559" /></svg>
