<?xml version="1.0" encoding="UTF-8" standalone="no"?>
<!-- Generator: Adobe Illustrator 24.3.0, SVG Export Plug-In . SVG Version: 6.00 Build 0)  -->

<svg
   version="1.1"
   id="Capa_1"
   x="0px"
   y="0px"
   viewBox="0 0 32 32"
   style="enable-background:new 0 0 32 32;"
   xml:space="preserve"
   sodipodi:docname="end.svg"
   inkscape:version="1.2.2 (b0a8486541, 2022-12-01)"
   xmlns:inkscape="http://www.inkscape.org/namespaces/inkscape"
   xmlns:sodipodi="http://sodipodi.sourceforge.net/DTD/sodipodi-0.dtd"
   xmlns="http://www.w3.org/2000/svg"
   xmlns:svg="http://www.w3.org/2000/svg"><defs
   id="defs21">
	
	
	
	

	
	

		
		
	</defs><sodipodi:namedview
   id="namedview19"
   pagecolor="#ffffff"
   bordercolor="#666666"
   borderopacity="1.0"
   inkscape:showpageshadow="2"
   inkscape:pageopacity="0.0"
   inkscape:pagecheckerboard="0"
   inkscape:deskcolor="#d1d1d1"
   showgrid="false"
   inkscape:zoom="20.85965"
   inkscape:cx="16.587047"
   inkscape:cy="20.302354"
   inkscape:window-width="1920"
   inkscape:window-height="1011"
   inkscape:window-x="0"
   inkscape:window-y="32"
   inkscape:window-maximized="1"
   inkscape:current-layer="Capa_1" />
<style
   type="text/css"
   id="style2">
	.st0{fill:#17B5C8;}
	.st1{fill:#11828F;}
	.st2{fill:none;}
	.st3{fill:#A6D100;}
	.st4{fill:#89AB00;}
	.st5{fill:#5F7993;}
	.st6{fill:#405162;}
	.st7{fill:#FFFFFF;}
	.st8{fill:#3A5368;}
</style>

<path
   class="st1"
   d="m 16.025133,0.03716991 c -0.5,0 -1,0 -1.5,0.1 8.1,0.7 14.5,7.59999999 14.5,15.90000009 0,8.3 -6.4,15.2 -14.5,15.9 0.5,0 1,0.1 1.5,0.1 8.8,0 16,-7.2 16,-16 0,-8.8000001 -7.2,-16.00000009 -16,-16.00000009 z"
   id="path216"
   style="fill:#11778e" /><path
   class="st0"
   d="m 14.525133,0.13716991 c -8.0999991,0.7 -14.49999903,7.59999999 -14.49999903,15.90000009 0,8.3 6.39999993,15.2 14.49999903,15.9 8.1,-0.7 14.5,-7.6 14.5,-15.9 0,-8.3000001 -6.4,-15.20000009 -14.5,-15.90000009 z"
   id="path218"
   style="fill:#17b5c8" /><path
   class="st7"
   d="M 7.8474848,22.48831 C 7.8659129,21.649605 7.8749226,10.59991 7.8586425,9.6712768 7.8423625,8.7426434 8.3836503,8.4552987 9.0499768,8.458331 9.8094263,8.4617871 20.66731,8.4140665 21.833405,8.4455397 c 1.166095,0.031473 1.379161,0.101708 1.372835,1.5886713 -0.0063,1.486963 -0.04543,11.286883 -0.04308,12.17434 0.0023,0.887456 -0.05428,1.358938 -1.003948,1.331605 -0.949673,-0.02733 -11.576975,0.01891 -12.7672863,0.02414 -1.5190518,0.04629 -1.5661919,-0.08587 -1.5444369,-1.075986 z"
   id="path222"
   style="fill:#ffffff"
   sodipodi:nodetypes="szszzzzcs" /></svg>
