<?xml version="1.0" encoding="UTF-8" standalone="no"?>
<!-- Generator: Adobe Illustrator 24.3.0, SVG Export Plug-In . SVG Version: 6.00 Build 0)  -->

<svg
   version="1.1"
   id="Capa_1"
   x="0px"
   y="0px"
   viewBox="0 0 32 32"
   style="enable-background:new 0 0 32 32;"
   xml:space="preserve"
   sodipodi:docname="end.svg"
   inkscape:version="1.2.2 (b0a8486541, 2022-12-01)"
   xmlns:inkscape="http://www.inkscape.org/namespaces/inkscape"
   xmlns:sodipodi="http://sodipodi.sourceforge.net/DTD/sodipodi-0.dtd"
   xmlns="http://www.w3.org/2000/svg"
   xmlns:svg="http://www.w3.org/2000/svg"><defs
   id="defs21">
	
	
	
	

	
	

		
		
	</defs><sodipodi:namedview
   id="namedview19"
   pagecolor="#ffffff"
   bordercolor="#666666"
   borderopacity="1.0"
   inkscape:showpageshadow="2"
   inkscape:pageopacity="0.0"
   inkscape:pagecheckerboard="0"
   inkscape:deskcolor="#d1d1d1"
   showgrid="false"
   inkscape:zoom="20.85965"
   inkscape:cx="16.587047"
   inkscape:cy="20.302354"
   inkscape:window-width="1920"
   inkscape:window-height="1011"
   inkscape:window-x="0"
   inkscape:window-y="32"
   inkscape:window-maximized="1"
   inkscape:current-layer="Capa_1" />
<style
   type="text/css"
   id="style2">
	.st0{fill:#17B5C8;}
	.st1{fill:#11828F;}
	.st2{fill:none;}
	.st3{fill:#A6D100;}
	.st4{fill:#89AB00;}
	.st5{fill:#5F7993;}
	.st6{fill:#405162;}
	.st7{fill:#FFFFFF;}
	.st8{fill:#3A5368;}
</style>

<path
   class="st1"
   d="m 16.025133,0.03716991 c -0.5,0 -1,0 -1.5,0.1 8.1,0.7 14.5,7.59999999 14.5,15.90000009 0,8.3 -6.4,15.2 -14.5,15.9 0.5,0 1,0.1 1.5,0.1 8.8,0 16,-7.2 16,-16 0,-8.8000001 -7.2,-16.00000009 -16,-16.00000009 z"
   id="path216"
   style="fill:#11778e" /><path
   class="st0"
   d="m 14.525133,0.13716991 c -8.0999991,0.7 -14.49999903,7.59999999 -14.49999903,15.90000009 0,8.3 6.39999993,15.2 14.49999903,15.9 8.1,-0.7 14.5,-7.6 14.5,-15.9 0,-8.3000001 -6.4,-15.20000009 -14.5,-15.90000009 z"
   id="path218"
   style="fill:#17b5c8" /><path
   class="st7"
   d="m 9.2577734,21.297157 c 0.015043,-0.684649 0.022398,-9.704706 0.00911,-10.462766 -0.01329,-0.758059 0.428573,-0.9926235 0.9725066,-0.9901482 0.619952,0.00282 9.48343,-0.036134 10.435334,-0.010442 0.951903,0.025692 1.125832,0.083026 1.120668,1.2968602 -0.0051,1.213833 -0.03709,9.213677 -0.03517,9.938124 0.0019,0.724445 -0.04431,1.109324 -0.81954,1.087012 -0.775234,-0.02231 -9.450484,0.01544 -10.422156,0.01971 -1.2400282,0.03779 -1.2785095,-0.0701 -1.2607505,-0.878346 z"
   id="path222"
   style="fill:#ffffff;stroke-width:0.816317"
   sodipodi:nodetypes="szszzzzcs" /></svg>
