<?xml version="1.0" encoding="UTF-8" standalone="no"?>
<!-- Generator: Adobe Illustrator 24.3.0, SVG Export Plug-In . SVG Version: 6.00 Build 0)  -->

<svg
   version="1.1"
   id="Capa_1"
   x="0px"
   y="0px"
   viewBox="0 0 32 32"
   style="enable-background:new 0 0 32 32;"
   xml:space="preserve"
   sodipodi:docname="node-white.svg"
   inkscape:version="1.2.2 (b0a8486541, 2022-12-01)"
   xmlns:inkscape="http://www.inkscape.org/namespaces/inkscape"
   xmlns:sodipodi="http://sodipodi.sourceforge.net/DTD/sodipodi-0.dtd"
   xmlns="http://www.w3.org/2000/svg"
   xmlns:svg="http://www.w3.org/2000/svg"><defs
   id="defs1928">
	
	
</defs><sodipodi:namedview
   id="namedview1926"
   pagecolor="#000000"
   bordercolor="#666666"
   borderopacity="1.0"
   inkscape:showpageshadow="2"
   inkscape:pageopacity="0"
   inkscape:pagecheckerboard="true"
   inkscape:deskcolor="#d1d1d1"
   showgrid="false"
   inkscape:zoom="7.375"
   inkscape:cx="15.932203"
   inkscape:cy="16.20339"
   inkscape:window-width="1920"
   inkscape:window-height="1011"
   inkscape:window-x="0"
   inkscape:window-y="32"
   inkscape:window-maximized="1"
   inkscape:current-layer="g1921" />
<style
   type="text/css"
   id="style1907">
	.st0{fill:#17B5C8;}
	.st1{fill:#11828F;}
	.st2{fill:none;}
	.st3{fill:#A6D100;}
	.st4{fill:#89AB00;}
	.st5{fill:#5F7993;}
	.st6{fill:#405162;}
	.st7{fill:#FFFFFF;}
	.st8{fill:#3A5368;}
</style>
<g
   id="g1921"
   transform="matrix(1.5890301,0,0,1.5890301,0,-18.848962)">
		<path
   class="st2"
   d="m 10.2,17.8 c -0.1,0 -0.1,0 -0.2,0 -1.2,0 -2.2,0.5 -3,1.3 -0.7,0.7 -1.1,1.6 -1.1,2.6 -0.1,2.3 1.7,4.2 3.9,4.3 1.2,0 2.2,-0.4 3,-1.1 0.8,-0.7 1.3,-1.7 1.3,-2.8 0.1,-2.2 -1.6,-4.2 -3.9,-4.3 z"
   id="path1915" />
		<path
   class="st3"
   d="m 15.8,24.4 c 1.3,-2.9 0.7,-6.4 -1.5,-8.8 v 0 0 C 14,15.4 13.7,15.2 13.4,15.1 13,14.9 12.6,14.7 12.2,14.6 l 0.1,-1.7 C 12.3,12.4 11.9,12 11.5,12 L 9.7,11.9 C 9.4,11.9 9.2,12 9,12.2 8.9,12.3 8.8,12.5 8.8,12.7 L 8.7,14.4 C 7.9,14.6 7.2,14.8 6.5,15.2 L 5.2,14 C 5,13.8 4.8,13.7 4.6,13.7 4.4,13.7 4.1,13.8 4,13.9 L 2.7,15.1 C 2.3,15.4 2.3,16 2.6,16.3 l 1.1,1.2 c -0.4,0.7 -0.8,1.4 -1,2.2 L 1,19.8 c -0.5,0 -0.9,0.4 -0.9,0.8 L 0,22.4 c 0,0.2 0.1,0.5 0.2,0.6 0.2,0.2 0.4,0.3 0.6,0.3 l 1.7,0.1 c 0.2,0.8 0.4,1.5 0.8,2.2 l -1.2,1.1 c -0.2,0.2 -0.3,0.4 -0.3,0.6 0,0.2 0.1,0.5 0.2,0.6 l 1.2,1.3 c 0.2,0.2 0.4,0.3 0.6,0.3 0.2,0 0.5,-0.1 0.6,-0.2 l 1.2,-1.1 c 0.7,0.4 1.4,0.8 2.2,1 3.5,0.3 6.7,-1.7 8,-4.8 z m -3,0.6 c -0.8,0.7 -1.8,1.1 -3,1.1 -2.3,-0.1 -4,-2 -3.9,-4.3 0,-1 0.5,-2 1.1,-2.6 0.8,-0.8 1.8,-1.3 3,-1.3 0.1,0 0.1,0 0.2,0 2.3,0.1 4,2 3.9,4.3 0,1.1 -0.5,2.1 -1.3,2.8 z"
   id="path1917"
   style="fill:#ffffff" />
		<path
   class="st4"
   d="m 8.5293384,31.473345 1.7999996,0.1 c 0,0 0,0 0,0 0.2,0 0.4,-0.1 0.6,-0.2 0.2,-0.2 0.3,-0.4 0.3,-0.6 l 0.1,-1.7 c 0.8,-0.2 1.5,-0.4 2.2,-0.8 l 1.1,1.2 c 0.2,0.2 0.4,0.3 0.6,0.3 0.2,0 0.5,-0.1 0.6,-0.2 l 1.3,-1.2 c 0.4,-0.3 0.4,-0.9 0.1,-1.2 l -1.1,-1.2 c 0.4,-0.7 0.8,-1.4 1,-2.2 l 1.7,0.1 c 0.5,0 0.9,-0.4 0.9,-0.8 v -0.1 l 0.1,-1.7 c 0,-0.2 -0.1,-0.5 -0.2,-0.6 -0.2,-0.2 -0.4,-0.3 -0.6,-0.3 l -1.7,-0.1 c -0.1,-0.6 -0.3,-1.2 -0.6,-1.8 -0.1,-0.1 -0.1,-0.3 -0.2,-0.4 l 1.2,-1.1 c 0.4,-0.3 0.4,-0.9 0.1,-1.2 l -1.2,-1.3 c -0.2,-0.2 -0.4,-0.3 -0.6,-0.3 -0.2,0 -0.5,0.1 -0.6,0.2 l -1.2,1.1 v 0 c 2.2,2.4 2.8,5.8 1.5,8.8 -1.3,3.1 -4.5,5.1 -7.8999996,4.9 l -0.2,1.4 c 0,0.5 0.4,0.9 0.9,0.9 z"
   id="path1919"
   style="fill:#ffffff;fill-opacity:1" />
	</g>
</svg>
