<?xml version="1.0" encoding="UTF-8" standalone="no"?>
<!-- Generator: Adobe Illustrator 24.3.0, SVG Export Plug-In . SVG Version: 6.00 Build 0)  -->

<svg
   version="1.1"
   id="Capa_1"
   x="0px"
   y="0px"
   viewBox="0 0 32 32"
   style="enable-background:new 0 0 32 32;"
   xml:space="preserve"
   sodipodi:docname="paste.svg"
   inkscape:version="1.2.2 (b0a8486541, 2022-12-01)"
   xmlns:inkscape="http://www.inkscape.org/namespaces/inkscape"
   xmlns:sodipodi="http://sodipodi.sourceforge.net/DTD/sodipodi-0.dtd"
   xmlns="http://www.w3.org/2000/svg"
   xmlns:svg="http://www.w3.org/2000/svg"><defs
   id="defs21"><inkscape:path-effect
   effect="powerclip"
   id="path-effect8407"
   is_visible="true"
   lpeversion="1"
   inverse="true"
   flatten="false"
   hide_clip="false"
   message="Use fill-rule evenodd on &lt;b&gt;fill and stroke&lt;/b&gt; dialog if no flatten result after convert clip to paths." />
	
	
	
	

	
	

		
		
	
	
	

	
	
<filter
   id="mask-powermask-path-effect8393_inverse"
   inkscape:label="filtermask-powermask-path-effect8393"
   style="color-interpolation-filters:sRGB"
   height="100"
   width="100"
   x="-50"
   y="-50"><feColorMatrix
     id="mask-powermask-path-effect8393_primitive1"
     values="1"
     type="saturate"
     result="fbSourceGraphic" /><feColorMatrix
     id="mask-powermask-path-effect8393_primitive2"
     values="-1 0 0 0 1 0 -1 0 0 1 0 0 -1 0 1 0 0 0 1 0 "
     in="fbSourceGraphic" /></filter><clipPath
   clipPathUnits="userSpaceOnUse"
   id="clipPath8403"><circle
     style="display:none;fill:#a6d100;stroke:none;stroke-width:1.00157;stroke-linecap:round;stroke-linejoin:round;stroke-dasharray:2.00315, 4.0063"
     id="circle8405"
     cx="6.9830503"
     cy="25.423729"
     r="2.4406779" /></clipPath><clipPath
   clipPathUnits="userSpaceOnUse"
   id="clipPath8403-1"><circle
     style="display:none;fill:#a6d100;stroke:none;stroke-width:1.00157;stroke-linecap:round;stroke-linejoin:round;stroke-dasharray:2.00315, 4.0063"
     id="circle8405-2"
     cx="6.9830503"
     cy="25.423729"
     r="2.4406779"
     d="M 9.4237282,25.423729 A 2.4406779,2.4406779 0 0 1 6.9830503,27.864407 2.4406779,2.4406779 0 0 1 4.5423725,25.423729 2.4406779,2.4406779 0 0 1 6.9830503,22.983051 2.4406779,2.4406779 0 0 1 9.4237282,25.423729 Z" /><path
     id="lpe_path-effect8407-7"
     style="fill:#a6d100;stroke:none;stroke-width:1.00157;stroke-linecap:round;stroke-linejoin:round;stroke-dasharray:2.00315, 4.0063"
     class="powerclip"
     d="M -2.2203393,16.220339 H 16.18644 v 18.40678 H -2.2203393 Z m 11.6440675,9.20339 a 2.4406779,2.4406779 0 0 0 -2.4406779,-2.440678 2.4406779,2.4406779 0 0 0 -2.4406778,2.440678 2.4406779,2.4406779 0 0 0 2.4406778,2.440678 2.4406779,2.4406779 0 0 0 2.4406779,-2.440678 z" /></clipPath><inkscape:path-effect
   effect="powerclip"
   id="path-effect8407-0"
   is_visible="true"
   lpeversion="1"
   inverse="true"
   flatten="false"
   hide_clip="false"
   message="Use fill-rule evenodd on &lt;b&gt;fill and stroke&lt;/b&gt; dialog if no flatten result after convert clip to paths." /><clipPath
   clipPathUnits="userSpaceOnUse"
   id="clipath_lpe_path-effect8407-0"><circle
     style="display:none;fill:#a6d100;stroke:none;stroke-width:1.00157;stroke-linecap:round;stroke-linejoin:round;stroke-dasharray:2.00315, 4.0063"
     id="circle8466"
     cx="6.9830503"
     cy="25.423729"
     r="2.4406779" /></clipPath></defs><sodipodi:namedview
   id="namedview19"
   pagecolor="#ffffff"
   bordercolor="#666666"
   borderopacity="1.0"
   inkscape:showpageshadow="2"
   inkscape:pageopacity="0.0"
   inkscape:pagecheckerboard="0"
   inkscape:deskcolor="#d1d1d1"
   showgrid="false"
   inkscape:zoom="20.85965"
   inkscape:cx="21.884356"
   inkscape:cy="14.214045"
   inkscape:window-width="1920"
   inkscape:window-height="1011"
   inkscape:window-x="0"
   inkscape:window-y="32"
   inkscape:window-maximized="1"
   inkscape:current-layer="Capa_1" />
<style
   type="text/css"
   id="style2">
	.st0{fill:#17B5C8;}
	.st1{fill:#11828F;}
	.st2{fill:none;}
	.st3{fill:#A6D100;}
	.st4{fill:#89AB00;}
	.st5{fill:#5F7993;}
	.st6{fill:#405162;}
	.st7{fill:#FFFFFF;}
	.st8{fill:#3A5368;}
</style>

<rect
   style="fill:#ffffff;fill-opacity:1;fill-rule:nonzero;stroke:none;stroke-width:0.0975822;stroke-linecap:round;stroke-linejoin:round;stroke-miterlimit:4;stroke-dasharray:none;stroke-dashoffset:0;stroke-opacity:1"
   id="rect19603"
   width="23.994274"
   height="26.928389"
   x="3.7504015"
   y="3.0174737"
   ry="2.1409824" /><g
   transform="matrix(0.1469813,0,0,0.1469813,-6.269013,0.64575296)"
   id="g17720"><rect
     x="95.5"
     y="104.8"
     class="st1"
     width="19.299999"
     height="19.299999"
     id="rect17644"
     style="fill:#17b5c8" /><rect
     x="95.5"
     y="148.2"
     class="st1"
     width="19.299999"
     height="19.299999"
     id="rect17646"
     style="fill:#17b5c8" /><rect
     x="95.5"
     y="104.8"
     class="st2"
     width="6.8000002"
     height="19.299999"
     id="rect17648"
     style="fill:#11778e" /><rect
     x="95.5"
     y="148.2"
     class="st2"
     width="6.8000002"
     height="19.299999"
     id="rect17650"
     style="fill:#11778e" /><path
     inkscape:connector-curvature="0"
     class="st4"
     d="M 189.2,30.1 V 29 c 0,-11 -8.9,-19.9 -19.9,-19.9 h -8.4 c -1.4,-4.7 -5.7,-8 -10.8,-8 -5.1,0 -9.4,3.4 -10.8,8 h -8.4 C 119.9,9.1 111,18 111,29 v 1.2 h 78.2 z"
     id="path17652" /><path
     inkscape:connector-curvature="0"
     class="st4"
     d="M 189.2,30.1 V 29 c 0,-11 -8.9,-19.9 -19.9,-19.9 h -8.4 c -1.4,-4.7 -5.7,-8 -10.8,-8 -5.1,0 -9.4,3.4 -10.8,8 h -8.4 C 119.9,9.1 111,18 111,29 v 1.2 h 78.2 z"
     id="path17654"
     style="fill:#a6d100" /><path
     inkscape:connector-curvature="0"
     class="st5"
     d="m 139.3,9 h 8.4 c 1,-3.3 3.4,-5.9 6.5,-7.2 C 153,1.3 151.5,1 150,1 c -5.1,0 -9.4,3.4 -10.8,8 h -8.4 c -11,0 -19.9,8.9 -19.9,19.9 v 1.2 h 8.6 V 29 C 119.4,18 128.3,9 139.3,9 Z"
     id="path17656"
     style="fill:#89ab00" /><g
     id="g17660"><path
       inkscape:connector-curvature="0"
       d="m 189.2,31.1 h -78.4 c -0.5,0 -1,-0.4 -1,-1 V 29 c 0,-11.5 9.4,-20.9 20.9,-20.9 h 7.7 c 1.8,-4.8 6.4,-8 11.5,-8 5.1,0 9.8,3.3 11.5,8 h 7.7 c 11.5,0 20.9,9.4 20.9,20.9 v 1.2 c 0.2,0.5 -0.3,0.9 -0.8,0.9 z m -77.4,-1.9 h 76.4 V 29 c 0,-10.4 -8.5,-18.9 -18.9,-18.9 h -8.4 C 160.5,10.1 160.1,9.8 160,9.4 158.6,5 154.5,2 150,2 c -4.5,0 -8.6,3 -9.9,7.3 -0.1,0.4 -0.5,0.7 -0.9,0.7 h -8.4 c -10.4,0 -18.9,8.5 -18.9,18.9 v 0.3 z"
       id="path17658" /></g><g
     id="g17664"><path
       inkscape:connector-curvature="0"
       d="M 213.9,200 H 86.1 C 75.8,200 67.4,191.6 67.4,181.3 V 33.6 c 0,-10.3 8.4,-18.7 18.7,-18.7 h 29.6 c 0.4,0 0.7,0.2 0.9,0.6 0.2,0.4 0.1,0.8 -0.2,1.1 -3,3.5 -4.7,7.9 -4.7,12.4 v 0.2 h 76.4 V 29 c 0,-4.6 -1.7,-9 -4.7,-12.4 -0.3,-0.3 -0.3,-0.7 -0.2,-1.1 0.2,-0.4 0.5,-0.6 0.9,-0.6 h 29.6 c 10.3,0 18.7,8.4 18.7,18.7 v 147.6 c 0.3,10.4 -8.1,18.8 -18.5,18.8 z M 86.1,16.9 c -9.2,0 -16.7,7.5 -16.7,16.7 v 147.6 c 0,9.2 7.5,16.7 16.7,16.7 H 214 c 9.2,0 16.8,-7.5 16.8,-16.7 V 33.6 c 0,-9.2 -7.5,-16.7 -16.8,-16.7 h -27.6 c 2.5,3.5 3.9,7.7 3.9,12.1 v 1.2 c 0,0.5 -0.4,1 -1,1 h -78.4 c -0.5,0 -1,-0.4 -1,-1 V 29 c 0,-4.3 1.4,-8.6 3.9,-12.1 z"
       id="path17662" /></g><g
     id="g17674"><path
       inkscape:connector-curvature="0"
       d="m 209.8,62 h -61.6 c -0.5,0 -1,-0.4 -1,-1 0,-0.5 0.4,-1 1,-1 h 61.6 c 0.5,0 1,0.4 1,1 0,0.6 -0.4,1 -1,1 z"
       id="path17672" /></g><g
     id="g17678"><path
       inkscape:connector-curvature="0"
       d="m 175.6,81.9 h -27.4 c -0.5,0 -1,-0.4 -1,-1 0,-0.5 0.4,-1 1,-1 h 27.4 c 0.5,0 1,0.4 1,1 0,0.5 -0.4,1 -1,1 z"
       id="path17676" /></g><g
     id="g17682"><path
       inkscape:connector-curvature="0"
       d="m 195.2,81.9 h -5 c -0.5,0 -1,-0.4 -1,-1 0,-0.5 0.4,-1 1,-1 h 5 c 0.5,0 1,0.4 1,1 0,0.5 -0.4,1 -1,1 z"
       id="path17680" /></g><g
     id="g17686"><path
       inkscape:connector-curvature="0"
       d="m 209.8,106.5 h -61.6 c -0.5,0 -1,-0.4 -1,-1 0,-0.5 0.4,-1 1,-1 h 61.6 c 0.5,0 1,0.4 1,1 0,0.6 -0.4,1 -1,1 z"
       id="path17684" /></g><g
     id="g17690"><path
       inkscape:connector-curvature="0"
       d="m 175.6,126.4 h -27.4 c -0.5,0 -1,-0.4 -1,-1 0,-0.6 0.4,-1 1,-1 h 27.4 c 0.5,0 1,0.4 1,1 0,0.6 -0.4,1 -1,1 z"
       id="path17688" /></g><g
     id="g17694"><path
       inkscape:connector-curvature="0"
       d="m 195.2,126.4 h -5 c -0.5,0 -1,-0.4 -1,-1 0,-0.6 0.4,-1 1,-1 h 5 c 0.5,0 1,0.4 1,1 0,0.6 -0.4,1 -1,1 z"
       id="path17692" /></g><g
     id="g17698"><path
       inkscape:connector-curvature="0"
       d="m 209.8,149.2 h -61.6 c -0.5,0 -1,-0.4 -1,-1 0,-0.5 0.4,-1 1,-1 h 61.6 c 0.5,0 1,0.4 1,1 0,0.6 -0.4,1 -1,1 z"
       id="path17696" /></g><g
     id="g17702"><path
       inkscape:connector-curvature="0"
       d="m 175.6,169.1 h -27.4 c -0.5,0 -1,-0.4 -1,-1 0,-0.5 0.4,-1 1,-1 h 27.4 c 0.5,0 1,0.4 1,1 0,0.5 -0.4,1 -1,1 z"
       id="path17700" /></g><g
     id="g17706"><path
       inkscape:connector-curvature="0"
       d="m 195.2,169.1 h -5 c -0.5,0 -1,-0.4 -1,-1 0,-0.5 0.4,-1 1,-1 h 5 c 0.5,0 1,0.4 1,1 0,0.5 -0.4,1 -1,1 z"
       id="path17704" /></g><g
     id="g17710"><path
       inkscape:connector-curvature="0"
       d="m 102,80.6 c -0.2,0 -0.5,-0.1 -0.7,-0.3 L 92,71.8 c -0.4,-0.4 -0.4,-1 -0.1,-1.4 0.4,-0.4 1,-0.4 1.4,-0.1 l 8.6,7.9 19.7,-20.2 c 0.4,-0.4 1,-0.4 1.4,0 0.4,0.4 0.4,1 0,1.4 l -20.4,20.9 c -0.1,0.2 -0.3,0.3 -0.6,0.3 z"
       id="path17708" /></g><g
     id="g17714"><path
       inkscape:connector-curvature="0"
       d="M 114.8,125.1 H 95.5 c -0.5,0 -1,-0.4 -1,-1 v -19.3 c 0,-0.5 0.4,-1 1,-1 h 19.3 c 0.5,0 1,0.4 1,1 v 19.3 c 0,0.6 -0.4,1 -1,1 z m -18.3,-2 h 17.4 V 105.7 H 96.5 Z"
       id="path17712" /></g><g
     id="g17718"><path
       inkscape:connector-curvature="0"
       d="M 114.8,168.6 H 95.5 c -0.5,0 -1,-0.4 -1,-1 v -19.3 c 0,-0.5 0.4,-1 1,-1 h 19.3 c 0.5,0 1,0.4 1,1 v 19.3 c 0,0.5 -0.4,1 -1,1 z m -18.3,-2 h 17.4 V 149.2 H 96.5 Z"
       id="path17716" /></g><g
     transform="matrix(1.1327699,0,0,1.1327699,-19.046853,-3.8568786)"
     id="g17670"><circle
       style="fill:#ffffff"
       id="circle17666"
       r="3.8"
       cy="18.299999"
       cx="149.5"
       class="st6" /><path
       inkscape:connector-curvature="0"
       id="path17668"
       d="m 149.5,23.1 c -2.6,0 -4.8,-2.1 -4.8,-4.8 0,-2.6 2.1,-4.8 4.8,-4.8 2.6,0 4.8,2.1 4.8,4.8 0,2.7 -2.2,4.8 -4.8,4.8 z m 0,-7.5 c -1.5,0 -2.8,1.2 -2.8,2.8 0,1.6 1.2,2.8 2.8,2.8 1.5,0 2.8,-1.2 2.8,-2.8 0,-1.6 -1.3,-2.8 -2.8,-2.8 z" /></g></g></svg>
