<?xml version="1.0" encoding="UTF-8" standalone="no"?>
<!-- Generator: Adobe Illustrator 24.3.0, SVG Export Plug-In . SVG Version: 6.00 Build 0)  -->

<svg
   version="1.1"
   id="Capa_1"
   x="0px"
   y="0px"
   viewBox="0 0 32 32"
   style="enable-background:new 0 0 32 32;"
   xml:space="preserve"
   sodipodi:docname="split.svg"
   inkscape:version="1.2.2 (b0a8486541, 2022-12-01)"
   xmlns:inkscape="http://www.inkscape.org/namespaces/inkscape"
   xmlns:sodipodi="http://sodipodi.sourceforge.net/DTD/sodipodi-0.dtd"
   xmlns="http://www.w3.org/2000/svg"
   xmlns:svg="http://www.w3.org/2000/svg"><defs
   id="defs21">
	
	
	
	

	
	

		
		
	</defs><sodipodi:namedview
   id="namedview19"
   pagecolor="#ffffff"
   bordercolor="#666666"
   borderopacity="1.0"
   inkscape:showpageshadow="2"
   inkscape:pageopacity="0.0"
   inkscape:pagecheckerboard="0"
   inkscape:deskcolor="#d1d1d1"
   showgrid="false"
   inkscape:zoom="20.85965"
   inkscape:cx="16.059713"
   inkscape:cy="17.521866"
   inkscape:window-width="1920"
   inkscape:window-height="1043"
   inkscape:window-x="0"
   inkscape:window-y="1080"
   inkscape:window-maximized="1"
   inkscape:current-layer="Capa_1" />
<style
   type="text/css"
   id="style2">
	.st0{fill:#17B5C8;}
	.st1{fill:#11828F;}
	.st2{fill:none;}
	.st3{fill:#A6D100;}
	.st4{fill:#89AB00;}
	.st5{fill:#5F7993;}
	.st6{fill:#405162;}
	.st7{fill:#FFFFFF;}
	.st8{fill:#3A5368;}
</style>

<style
   type="text/css"
   id="style3071">
	.st0{fill:#17B5C8;}
	.st1{fill:#11828F;}
	.st2{fill:none;}
	.st3{fill:#A6D100;}
	.st4{fill:#89AB00;}
	.st5{fill:#5F7993;}
	.st6{fill:#405162;}
	.st7{fill:#FFFFFF;}
	.st8{fill:#3A5368;}
</style><path
   style="fill:#11778e;stroke-width:0.702813"
   inkscape:connector-curvature="0"
   id="path3073-7"
   d="m 29.375275,9.921136 -5.774985,5.91538 c -0.208297,0.213361 -0.563298,0.350752 -0.844947,0.350752 -0.35206,0 -0.633709,-0.140302 -0.844947,-0.350752 l -0.704122,-0.701509 c -0.211236,-0.210452 -0.352061,-0.561206 -0.352061,-0.841808 0,-0.350754 0.140825,-0.631358 0.352061,-0.84181 l 2.465608,-2.548149 h -3.767055 c 0,0 -0.951218,0.0045 -2.278615,0.02557 -1.327398,0.021 -5.23357,7.099103 -6.938024,7.073917 -1.7044551,-0.02518 -7.5070896,-0.111436 -7.5070896,-0.111436 -0.2268133,-1.172303 -0.1727149,-1.153383 -0.166675,-2.133197 0.00603,-0.979813 1.5438465,-2.293528 2.1071445,-2.293528 1.3202294,0 3.1743135,-0.01966 4.8411047,-0.02517 1.6667904,-0.0054 4.0435414,-5.6715139 6.7384554,-5.7079839 l 6.973241,-0.09024 -2.770382,-3.20709 c -0.194921,-0.225648 -0.352061,-0.561207 -0.352061,-0.841809 0,-0.280604 0.140826,-0.631356 0.352061,-0.84181 l 0.704124,-0.701507 c 0.211237,-0.210452 0.563298,-0.350754 0.844947,-0.350754 0.35206,0 0.638474,0.135625 0.844947,0.350754 l 6.006857,6.258704 c 0.206473,0.215129 0.352062,0.5612059 0.352062,0.8418099 0.07041,0.280603 -0.0704,0.561205 -0.281649,0.771657 z"
   class="st3"
   sodipodi:nodetypes="ssssssccczzszssccssssssscss" /><path
   style="fill:#a6d100;stroke-width:0.702813"
   inkscape:connector-curvature="0"
   id="path3073"
   d="m 29.470902,23.157464 -5.774985,-5.915386 c -0.208297,-0.213361 -0.563298,-0.350752 -0.844947,-0.350752 -0.35206,0 -0.633709,0.140302 -0.844947,0.350752 l -0.704122,0.701509 c -0.211236,0.210452 -0.352061,0.561206 -0.352061,0.841808 0,0.350754 0.140825,0.631358 0.352061,0.84181 l 2.465608,2.548149 h -3.767055 c 0,0 -0.951218,-0.0045 -2.278615,-0.02557 -1.327398,-0.021 -5.23357,-7.099103 -6.938024,-7.073917 -1.7044547,0.02518 -5.8185961,0.06912 -5.8185961,0.06912 -0.4927977,-0.0092 -1.861208,1.195699 -1.8551681,2.175513 0.00603,0.979813 1.5438465,2.293528 2.1071445,2.293528 1.3202294,0 3.1743135,0.01966 4.8411047,0.02517 1.66679,0.0054 4.043541,5.67152 6.738455,5.70799 l 6.973241,0.09024 -2.770382,3.20709 c -0.194921,0.225648 -0.352061,0.561207 -0.352061,0.841809 0,0.280604 0.140826,0.631356 0.352061,0.84181 l 0.704124,0.701507 c 0.211237,0.210452 0.563298,0.350754 0.844947,0.350754 0.35206,0 0.638474,-0.135625 0.844947,-0.350754 l 6.006857,-6.258704 c 0.206473,-0.215129 0.352062,-0.561206 0.352062,-0.84181 0.07041,-0.280603 -0.0704,-0.561205 -0.281649,-0.771657 z"
   class="st3"
   sodipodi:nodetypes="ssssssccczzszssccssssssscss" /></svg>
