<?xml version="1.0" encoding="UTF-8" standalone="no"?>
<!-- Generator: Adobe Illustrator 24.3.0, SVG Export Plug-In . SVG Version: 6.00 Build 0)  -->

<svg
   version="1.1"
   id="Capa_1"
   x="0px"
   y="0px"
   viewBox="0 0 32 32"
   style="enable-background:new 0 0 32 32;"
   xml:space="preserve"
   sodipodi:docname="start.svg"
   inkscape:version="1.2.2 (b0a8486541, 2022-12-01)"
   xmlns:inkscape="http://www.inkscape.org/namespaces/inkscape"
   xmlns:sodipodi="http://sodipodi.sourceforge.net/DTD/sodipodi-0.dtd"
   xmlns="http://www.w3.org/2000/svg"
   xmlns:svg="http://www.w3.org/2000/svg"><defs
   id="defs21">
	
	
	
	

	
	

		
		
	</defs><sodipodi:namedview
   id="namedview19"
   pagecolor="#ffffff"
   bordercolor="#666666"
   borderopacity="1.0"
   inkscape:showpageshadow="2"
   inkscape:pageopacity="0.0"
   inkscape:pagecheckerboard="0"
   inkscape:deskcolor="#d1d1d1"
   showgrid="false"
   inkscape:zoom="14.75"
   inkscape:cx="16"
   inkscape:cy="16.237288"
   inkscape:window-width="1920"
   inkscape:window-height="1011"
   inkscape:window-x="0"
   inkscape:window-y="32"
   inkscape:window-maximized="1"
   inkscape:current-layer="Capa_1" />
<style
   type="text/css"
   id="style2">
	.st0{fill:#17B5C8;}
	.st1{fill:#11828F;}
	.st2{fill:none;}
	.st3{fill:#A6D100;}
	.st4{fill:#89AB00;}
	.st5{fill:#5F7993;}
	.st6{fill:#405162;}
	.st7{fill:#FFFFFF;}
	.st8{fill:#3A5368;}
</style>

<path
   class="st1"
   d="m 15.784502,0.06721733 c -0.5,0 -1,0 -1.5,0.1 8.1,0.70000005 14.5,7.60000007 14.5,15.89999667 0,8.3 -6.4,15.2 -14.5,15.9 0.5,0 1,0.1 1.5,0.1 8.8,0 16,-7.2 16,-16 0,-8.7999966 -7.2,-15.99999667 -16,-15.99999667 z"
   id="path216"
   style="fill:#89ab00" /><path
   class="st0"
   d="M 14.284502,0.16721733 C 6.1845024,0.86721738 -0.21549755,7.7672174 -0.21549755,16.067214 c 0,8.3 6.39999995,15.2 14.49999955,15.9 8.1,-0.7 14.5,-7.6 14.5,-15.9 0,-8.2999966 -6.4,-15.19999662 -14.5,-15.89999667 z"
   id="path218"
   style="fill:#a6d100" /><path
   class="st7"
   d="m 13.484502,23.167214 c -0.4,0 -0.7,-0.1 -1,-0.4 -0.3,-0.3 -0.4,-0.6 -0.4,-1 0.431132,-7.405927 0.171477,-5.890215 0.4,-12.4999966 0.3,-0.3 0.6,-0.4 1,-0.4 0.4,0 0.7,0.1 1,0.4 l 5.7,5.6999966 c 0.3,0.3 0.4,0.6 0.4,1 0,0.4 -0.1,0.7 -0.4,1 l -1.2,1.2 -3.1,3.1 -1.4,1.4 c -0.3,0.3 -0.6,0.5 -1,0.5 z"
   id="path222"
   style="fill:#ffffff"
   sodipodi:nodetypes="ssccsssssccss" /></svg>
