<?xml version="1.0" encoding="UTF-8" standalone="no"?>
<!-- Generator: Adobe Illustrator 24.3.0, SVG Export Plug-In . SVG Version: 6.00 Build 0)  -->

<svg
   version="1.1"
   id="Capa_1"
   x="0px"
   y="0px"
   viewBox="0 0 32 32"
   style="enable-background:new 0 0 32 32;"
   xml:space="preserve"
   sodipodi:docname="timer.svg"
   inkscape:version="1.2.2 (b0a8486541, 2022-12-01)"
   xmlns:inkscape="http://www.inkscape.org/namespaces/inkscape"
   xmlns:sodipodi="http://sodipodi.sourceforge.net/DTD/sodipodi-0.dtd"
   xmlns="http://www.w3.org/2000/svg"
   xmlns:svg="http://www.w3.org/2000/svg"
   xmlns:rdf="http://www.w3.org/1999/02/22-rdf-syntax-ns#"
   xmlns:cc="http://creativecommons.org/ns#"
   xmlns:dc="http://purl.org/dc/elements/1.1/"><metadata
   id="metadata17"><rdf:RDF><cc:Work
       rdf:about=""><dc:format>image/svg+xml</dc:format><dc:type
         rdf:resource="http://purl.org/dc/dcmitype/StillImage" /></cc:Work></rdf:RDF></metadata><defs
   id="defs15" /><sodipodi:namedview
   pagecolor="#ffffff"
   bordercolor="#666666"
   borderopacity="1"
   objecttolerance="10"
   gridtolerance="10"
   guidetolerance="10"
   inkscape:pageopacity="0"
   inkscape:pageshadow="2"
   inkscape:window-width="960"
   inkscape:window-height="1011"
   id="namedview13"
   showgrid="false"
   inkscape:zoom="20.85965"
   inkscape:cx="9.3002519"
   inkscape:cy="8.7968878"
   inkscape:window-x="960"
   inkscape:window-y="32"
   inkscape:window-maximized="0"
   inkscape:current-layer="g10"
   inkscape:showpageshadow="2"
   inkscape:pagecheckerboard="0"
   inkscape:deskcolor="#d1d1d1" />
<style
   type="text/css"
   id="style2">
	.st0{fill:#17B5C8;}
	.st1{fill:#11828F;}
	.st2{fill:none;}
	.st3{fill:#A6D100;}
	.st4{fill:#89AB00;}
	.st5{fill:#5F7993;}
	.st6{fill:#405162;}
	.st7{fill:#FFFFFF;}
	.st8{fill:#3A5368;}
</style>
<g
   id="g10">
	
	
	<g
   id="g1964"
   transform="matrix(-0.53311367,-0.84604363,-0.84604363,0.53311367,38.066517,21.006879)"><path
     class="st3"
     d="M 29.9,17.3 H 28.5 27.2 C 26.8,23.1 21.9,27.7 16,27.7 9.8,27.7 4.8,22.7 4.8,16.5 c 0,-3 1.2,-5.7 3,-7.7 v 0 C 12.9,1 21.3,4.5 21.3,4.5 l -1,1.6 -1.3,2.1 c -0.1,0.2 -0.1,0.4 0,0.6 0.1,0.2 0.3,0.3 0.5,0.3 h 9.1 c 0.2,0 0.4,-0.1 0.5,-0.3 0.1,-0.2 0.1,-0.4 0,-0.6 L 24.5,0.3 C 24.5,0.1 24.3,0 24.1,0 23.9,0 23.7,0.1 23.6,0.3 L 22.4,2.4 C 20.4,1.5 18.2,1 16,1 c -0.3,0 -0.5,0 -0.8,0 0,0 -0.1,0 -0.1,0 -0.2,0 -0.5,0 -0.7,0.1 0,0 0,0 0,0 C 11.7,1.3 9.2,2.3 7,3.8 7,3.8 6.9,3.9 6.9,3.9 5.1,5.1 3.5,7.4 3.5,7.4 c -1.9,2.6 -3,5.7 -3,9.1 0,4.2 1.7,8 4.4,10.8 2.8,2.9 6.7,4.7 11.1,4.7 1.9,0 3.6,-0.3 5.3,-0.9 9.4,-6.6 8.6,-13.8 8.6,-13.8 z"
     id="path4"
     style="fill:#17b5c8" /><path
     class="st4"
     d="m 7.8,8.8 v 0 C 9.9,6.6 12.8,5.2 16,5.2 v 0 c 1.4,0 2.9,0.3 4.2,0.8 l 1,-1.6 C 21.3,4.5 12.9,1 7.8,8.8 Z"
     id="path6"
     style="fill:#11778e" /><path
     class="st4"
     d="m 31.4,18.4 v 0 0 c 0,-0.4 0.1,-0.8 0.1,-1.1 h -0.1 -1.1 -0.4 c 0,0 0.8,7.2 -8.6,13.7 5.4,-1.9 9.4,-6.7 10.1,-12.6 z"
     id="path8"
     style="fill:#11778e" /></g>
<path
   id="rect1966"
   style="fill:#a6d100;stroke:none;stroke-width:0.709052;stroke-linecap:round;stroke-linejoin:round"
   d="M 7.4684182,5.5998673 C 7.9385173,5.2014337 9.028775,5.3416919 10.385955,5.7382201 L 9.4823386,6.5506038 17.134524,15.258742 c 0.430089,0.489465 0.383008,1.216986 -0.08709,1.61542 -0.470099,0.398433 -1.188167,0.319477 -1.610018,-0.177033 L 7.7342083,7.7825766 6.9563366,8.4909813 C 6.5939349,7.1112745 6.9983197,5.9983002 7.4684182,5.5998673 Z"
   sodipodi:nodetypes="sccsssccs" /></g>
</svg>
