<?xml version="1.0" encoding="UTF-8" standalone="no"?>
<!-- Generator: Adobe Illustrator 24.3.0, SVG Export Plug-In . SVG Version: 6.00 Build 0)  -->

<svg
   version="1.1"
   id="Capa_1"
   x="0px"
   y="0px"
   viewBox="0 0 32 32"
   style="enable-background:new 0 0 32 32;"
   xml:space="preserve"
   sodipodi:docname="timer-black.svg"
   inkscape:version="1.2.2 (b0a8486541, 2022-12-01)"
   xmlns:inkscape="http://www.inkscape.org/namespaces/inkscape"
   xmlns:sodipodi="http://sodipodi.sourceforge.net/DTD/sodipodi-0.dtd"
   xmlns="http://www.w3.org/2000/svg"
   xmlns:svg="http://www.w3.org/2000/svg"
   xmlns:rdf="http://www.w3.org/1999/02/22-rdf-syntax-ns#"
   xmlns:cc="http://creativecommons.org/ns#"
   xmlns:dc="http://purl.org/dc/elements/1.1/"><metadata
   id="metadata17"><rdf:RDF><cc:Work
       rdf:about=""><dc:format>image/svg+xml</dc:format><dc:type
         rdf:resource="http://purl.org/dc/dcmitype/StillImage" /></cc:Work></rdf:RDF></metadata><defs
   id="defs15" /><sodipodi:namedview
   pagecolor="#ffffff"
   bordercolor="#666666"
   borderopacity="1"
   objecttolerance="10"
   gridtolerance="10"
   guidetolerance="10"
   inkscape:pageopacity="0"
   inkscape:pageshadow="2"
   inkscape:window-width="1920"
   inkscape:window-height="1011"
   id="namedview13"
   showgrid="false"
   inkscape:zoom="20.85965"
   inkscape:cx="1.3183347"
   inkscape:cy="12.679983"
   inkscape:window-x="0"
   inkscape:window-y="32"
   inkscape:window-maximized="1"
   inkscape:current-layer="g10"
   inkscape:showpageshadow="2"
   inkscape:pagecheckerboard="0"
   inkscape:deskcolor="#d1d1d1" />
<style
   type="text/css"
   id="style2">
	.st0{fill:#17B5C8;}
	.st1{fill:#11828F;}
	.st2{fill:none;}
	.st3{fill:#A6D100;}
	.st4{fill:#89AB00;}
	.st5{fill:#5F7993;}
	.st6{fill:#405162;}
	.st7{fill:#FFFFFF;}
	.st8{fill:#3A5368;}
</style>
<g
   id="g10">
	
	
	<path
   class="st3"
   d="M 7.4898635,4.933041 8.2362226,6.117502 8.9292704,7.2173588 C 4.2354628,10.647835 2.9559191,17.245772 6.1012897,22.23743 c 3.3053048,5.24547 10.2010913,6.81012 15.4465613,3.504815 2.538131,-1.599341 4.182713,-4.054 4.915195,-6.643106 v 0 C 30.343307,10.62603 22.903999,5.3851612 22.903999,5.3851612 L 22.083443,7.0841867 20.9998,9.3035821 c -0.115898,0.1912271 -0.285107,0.2978499 -0.507627,0.3198682 -0.22252,0.022018 -0.413747,-0.093879 -0.52037,-0.2630877 L 15.120469,1.6613656 C 15.013846,1.4921569 14.991828,1.2696368 15.107725,1.0784097 15.223623,0.88718257 15.392831,0.78055983 15.615351,0.75854146 l 9.136068,-0.31979729 c 0.169209,-0.10662274 0.360436,0.009275 0.467059,0.17848335 0.106622,0.16920872 0.128641,0.39172878 0.01274,0.58295588 l -1.136955,2.1347911 c 1.827667,1.212285 3.423539,2.8070241 4.596389,4.6683201 0.159934,0.2538131 0.266556,0.4230218 0.426491,0.6768349 0,0 0.05331,0.084604 0.05331,0.084604 0.106623,0.1692087 0.266557,0.4230218 0.288575,0.6455419 0,0 0,0 0,0 1.270198,2.3909402 1.756939,5.0391632 1.660724,7.7001302 0,0 -0.03129,0.137915 -0.03129,0.137915 -0.05565,2.162615 -1.148567,4.742446 -1.148567,4.742446 -1.186797,2.993579 -3.223107,5.576879 -6.099656,7.389466 -3.553383,2.239077 -7.674642,2.826635 -11.482971,2.035035 C 8.4110241,30.592376 4.8090023,28.25241 2.4633021,24.529818 1.4503861,22.922335 0.797906,21.324127 0.39923894,19.565985 0.9718584,8.0946245 7.4898635,4.933041 7.4898635,4.933041 Z"
   id="path4"
   style="fill:#07343a;fill-opacity:1" /><path
   class="st4"
   d="m 26.463046,19.099139 v 0 c 0.741758,-2.949542 0.380189,-6.149427 -1.325775,-8.856767 v 0 C 24.390912,9.0579109 23.337429,7.9487796 22.221359,7.1154797 l 0.820556,-1.6990255 c -0.137916,-0.031293 7.301392,5.2095758 3.421131,13.6826848 z"
   id="path6"
   style="fill:#082a2b;fill-opacity:1" /><path
   class="st4"
   d="m 5.759545,4.2504005 v 0 0 C 6.0979624,4.0371551 6.3830685,3.7393052 6.6368816,3.5793711 l 0.053311,0.084604 0.586425,0.930648 0.2132455,0.3384175 c 0,0 -6.5180051,3.1615835 -7.0060202,14.579632 C -0.78748762,13.931122 1.1410671,7.9880017 5.759545,4.2504005 Z"
   id="path8"
   style="fill:#08292b;fill-opacity:1" />
<path
   id="rect1966"
   style="fill:#3a3b00;stroke:none;stroke-width:0.709052;stroke-linecap:round;stroke-linejoin:round;fill-opacity:1"
   d="M 7.4684182,5.5998673 C 7.9385173,5.2014337 9.028775,5.3416919 10.385955,5.7382201 L 9.4823386,6.5506038 17.134524,15.258742 c 0.430089,0.489465 0.383008,1.216986 -0.08709,1.61542 -0.470099,0.398433 -1.188167,0.319477 -1.610018,-0.177033 L 7.7342083,7.7825766 6.9563366,8.4909813 C 6.5939349,7.1112745 6.9983197,5.9983002 7.4684182,5.5998673 Z"
   sodipodi:nodetypes="sccsssccs" /></g>
</svg>
