<?xml version="1.0" encoding="UTF-8" standalone="no"?>
<!-- Created with Inkscape (http://www.inkscape.org/) -->

<svg
   width="32"
   height="32"
   viewBox="0 0 8.4666664 8.4666668"
   version="1.1"
   id="svg8"
   sodipodi:docname="zoomout.svg"
   inkscape:version="1.2.2 (b0a8486541, 2022-12-01)"
   xml:space="preserve"
   xmlns:inkscape="http://www.inkscape.org/namespaces/inkscape"
   xmlns:sodipodi="http://sodipodi.sourceforge.net/DTD/sodipodi-0.dtd"
   xmlns="http://www.w3.org/2000/svg"
   xmlns:svg="http://www.w3.org/2000/svg"
   xmlns:rdf="http://www.w3.org/1999/02/22-rdf-syntax-ns#"
   xmlns:cc="http://creativecommons.org/ns#"
   xmlns:dc="http://purl.org/dc/elements/1.1/"><defs
     id="defs2"><inkscape:perspective
       sodipodi:type="inkscape:persp3d"
       inkscape:vp_x="0 : 26.458334 : 1"
       inkscape:vp_y="0 : 999.99999 : 0"
       inkscape:vp_z="79.374997 : 26.458334 : 1"
       inkscape:persp3d-origin="39.687499 : 17.638889 : 1"
       id="perspective929" /><clipPath
       clipPathUnits="userSpaceOnUse"
       id="clipPath8857"><rect
         style="opacity:1;fill:#637792;fill-opacity:1;fill-rule:nonzero;stroke:none;stroke-width:0.60000002;stroke-linecap:round;stroke-linejoin:round;stroke-miterlimit:4;stroke-dasharray:none;stroke-opacity:1"
         id="rect8859"
         width="45.120911"
         height="26.552826"
         x="27.119791"
         y="255.56435" /></clipPath></defs><sodipodi:namedview
     id="base"
     pagecolor="#ffffff"
     bordercolor="#666666"
     borderopacity="1.0"
     inkscape:pageopacity="0.0"
     inkscape:pageshadow="2"
     inkscape:zoom="15.839192"
     inkscape:cx="4.2931483"
     inkscape:cy="19.413869"
     inkscape:document-units="mm"
     inkscape:current-layer="layer1"
     showgrid="false"
     units="px"
     inkscape:measure-start="260.872,98.995"
     inkscape:measure-end="260.872,122.228"
     showguides="true"
     inkscape:guide-bbox="true"
     inkscape:window-width="960"
     inkscape:window-height="1011"
     inkscape:window-x="960"
     inkscape:window-y="32"
     inkscape:window-maximized="0"
     inkscape:snap-global="false"
     inkscape:pagecheckerboard="true"
     inkscape:showpageshadow="2"
     inkscape:deskcolor="#d1d1d1" /><metadata
     id="metadata5"><rdf:RDF><cc:Work
         rdf:about=""><dc:format>image/svg+xml</dc:format><dc:type
           rdf:resource="http://purl.org/dc/dcmitype/StillImage" /><dc:title /></cc:Work></rdf:RDF></metadata><g
     inkscape:label="Layer 1"
     inkscape:groupmode="layer"
     id="layer1"
     transform="translate(0,-288.53332)"><path
       style="fill:#ffffff;stroke:#ffffff;stroke-width:1.24523735;stroke-linecap:butt;stroke-linejoin:miter;stroke-miterlimit:4;stroke-dasharray:none;stroke-opacity:1"
       d="m 3.4805425,293.70599 2.7080815,2.66794 c 0.7565219,-0.099 1.2982772,-0.69079 1.5132673,-1.35717 l -2.6164832,-2.58049 z"
       id="path831-7"
       inkscape:connector-curvature="0"
       sodipodi:nodetypes="ccccc" /><path
       style="opacity:1;fill:#ffffff;fill-opacity:1;fill-rule:nonzero;stroke:#ffffff;stroke-width:1.09413671;stroke-linecap:round;stroke-linejoin:round;stroke-miterlimit:4;stroke-dasharray:none;stroke-opacity:1"
       id="path829-36"
       sodipodi:type="arc"
       sodipodi:cx="3.3094103"
       sodipodi:cy="291.72723"
       sodipodi:rx="2.6446311"
       sodipodi:ry="2.6829338"
       sodipodi:start="2.8258975"
       sodipodi:end="2.8219447"
       d="m 0.7954748,292.56022 a 2.6446311,2.6829338 0 0 1 1.6903536,-3.38251 2.6446311,2.6829338 0 0 1 3.3358897,1.71149 2.6446311,2.6829338 0 0 1 -1.6837605,3.3859 2.6446311,2.6829338 0 0 1 -3.33921754,-1.7048"
       sodipodi:open="true" /><path
       style="fill:none;stroke:#17b5c8;stroke-width:0.9375928;stroke-linecap:butt;stroke-linejoin:miter;stroke-miterlimit:4;stroke-dasharray:none;stroke-opacity:1"
       d="m 4.1093358,293.93256 2.0104689,2.03733 c 0.561639,-0.0756 0.9638359,-0.52751 1.1234438,-1.03638 l -1.942467,-1.97056 z"
       id="path831"
       inkscape:connector-curvature="0"
       sodipodi:nodetypes="ccccc" /><path
       style="opacity:1;fill:none;fill-opacity:1;fill-rule:nonzero;stroke:#17b5c8;stroke-width:0.9375928;stroke-linecap:round;stroke-linejoin:round;stroke-miterlimit:4;stroke-dasharray:none;stroke-opacity:1"
       id="path829"
       sodipodi:type="arc"
       sodipodi:cx="3.2755291"
       sodipodi:cy="291.69281"
       sodipodi:rx="2.2662499"
       sodipodi:ry="2.2990725"
       sodipodi:start="2.8258975"
       sodipodi:end="2.8219447"
       d="m 1.1212756,292.40662 a 2.2662499,2.2990725 0 0 1 1.4485058,-2.89856 2.2662499,2.2990725 0 0 1 2.8586065,1.46662 2.2662499,2.2990725 0 0 1 -1.4428561,2.90146 2.2662499,2.2990725 0 0 1 -2.8614582,-1.46089"
       sodipodi:open="true" /><g
       id="g18"
       style="fill:#a6d100"
       transform="matrix(0.09246597,0,0,0.10073482,1.7844891,290.06291)">
	<path
   class="st0"
   d="M 28.7,11.9 C 28.4,11.8 28.1,11.8 27.8,11.8 H 24 12 4.3 c -0.1,0 -0.1,0 -0.2,0 -1.1,1.1 -1.8,2.6 -1.8,4.2 0,1.7 0.7,3.2 1.9,4.2 0.1,0 0.1,0 0.2,0 h 7.7 11.9 3.7 c 0.3,0 0.6,0 0.9,-0.1 2,-0.4 3.4,-2.1 3.4,-4.1 0,-2 -1.4,-3.7 -3.3,-4.1 z"
   id="path12"
   style="fill:#a6d100" />
	<path
   class="st1"
   d="m 2.2,16 c 0,-1.7 0.7,-3.2 1.8,-4.2 -0.3,0 -0.5,0 -0.7,0.1 0,0 0,0 0,0 0,0 0,0 -0.1,0 C 3.1,11.9 3,12 2.9,12 2.9,12 2.8,12 2.7,12 2.5,12.1 2.4,12.1 2.2,12.2 2.1,12.3 2,12.3 1.9,12.4 1.8,12.5 1.7,12.6 1.6,12.6 1.5,12.7 1.4,12.7 1.3,12.8 1.2,12.9 1.1,13 1,13.1 0.9,13.2 0.8,13.3 0.7,13.4 0.6,13.5 0.6,13.6 0.5,13.7 0.4,13.8 0.4,14 0.3,14.1 0.3,14.2 0.2,14.3 0.2,14.4 0.1,14.6 0.1,14.7 0,14.9 0,15 -0.1,15.1 -0.1,15.2 0,15.5 0,15.7 0,16 c 0,0 0,0 0,0 v 0 0 c 0,0.3 0,0.5 0.1,0.8 0,0.1 0,0.2 0.1,0.3 0,0.2 0.1,0.3 0.2,0.5 0,0.1 0.1,0.2 0.1,0.3 0.1,0.1 0.1,0.3 0.2,0.4 0.1,0.1 0.1,0.2 0.2,0.3 0.1,0.1 0.2,0.2 0.3,0.3 0.1,0.1 0.2,0.2 0.3,0.3 0.1,0.1 0.2,0.2 0.3,0.2 0.1,0.1 0.2,0.2 0.3,0.2 0.1,0.1 0.2,0.1 0.3,0.2 0.3,0.2 0.7,0.3 1,0.4 0,0 0,0 0,0 0,0 0,0 0,0 0.2,0.1 0.5,0.1 0.7,0.1 C 2.9,19.2 2.2,17.7 2.2,16 Z"
   id="path14"
   style="fill:#89ab00" />
	<path
   class="st1"
   d="m 29.8,16 c 0,1.7 -0.7,3.2 -1.8,4.2 0.3,0 0.5,0 0.7,-0.1 0,0 0,0 0,0 0,0 0,0 0.1,0 0.1,0 0.2,-0.1 0.3,-0.1 0.1,0 0.2,-0.1 0.3,-0.1 0.2,-0.1 0.3,-0.1 0.5,-0.2 0.1,-0.1 0.2,-0.1 0.3,-0.2 0.1,-0.1 0.2,-0.2 0.3,-0.2 0.1,-0.1 0.2,-0.1 0.3,-0.2 0.1,-0.1 0.2,-0.2 0.3,-0.3 0.1,-0.1 0.2,-0.2 0.3,-0.3 0.1,-0.1 0.1,-0.2 0.2,-0.3 0.1,-0.1 0.1,-0.3 0.2,-0.4 0,-0.1 0.1,-0.2 0.1,-0.3 0.1,-0.2 0.1,-0.3 0.2,-0.5 0,-0.1 0.1,-0.2 0.1,-0.3 0,-0.3 0.1,-0.5 0.1,-0.8 0,0 0,0 0,0 v 0 0 c 0,-0.3 0,-0.5 -0.1,-0.8 0,-0.1 0,-0.2 -0.1,-0.3 0,-0.2 -0.1,-0.3 -0.2,-0.5 0,-0.1 -0.1,-0.2 -0.1,-0.3 C 31.7,13.9 31.7,13.7 31.6,13.6 31.5,13.5 31.5,13.4 31.4,13.3 31.3,13.2 31.2,13.1 31.1,13 31,12.9 30.9,12.8 30.8,12.7 30.7,12.6 30.6,12.5 30.5,12.5 30.4,12.4 30.3,12.3 30.2,12.3 30.1,12.2 30,12.2 29.9,12.1 c -0.3,-0.2 -0.7,-0.3 -1,-0.4 0,0 0,0 0,0 0,0 0,0 0,0 -0.2,-0.1 -0.5,-0.1 -0.7,-0.1 0.9,1.2 1.6,2.7 1.6,4.4 z"
   id="path16"
   style="fill:#89ab00" />
</g></g><style
     type="text/css"
     id="style2">
	.st0{fill:#17B5C8;}
	.st1{fill:#11828F;}
	.st2{fill:none;}
	.st3{fill:#A6D100;}
	.st4{fill:#89AB00;}
	.st5{fill:#5F7993;}
	.st6{fill:#405162;}
	.st7{fill:#FFFFFF;}
	.st8{fill:#3A5368;}
</style></svg>
